<svg xmlns="http://www.w3.org/2000/svg" viewBox="0 0 120 120" width="120" height="120">
  <path fill="#0c0c45" fill-rule="evenodd" d="M59.17,88.00L58.83,88.50L59.00,90.50L58.00,91.33L58.00,92.50L57.50,93.00L55.00,93.00L54.50,92.83L54.00,93.17L54.00,93.50L56.17,95.67L57.00,96.17L57.00,96.67L56.00,97.33L56.00,99.67L55.00,100.17L55.00,100.83L55.67,100.83L56.17,99.83L57.50,99.83L58.67,98.67L59.17,97.83L59.67,97.83L60.33,98.83L61.50,98.83L63.33,100.83L63.67,100.83L64.00,100.33L63.83,98.33L62.83,97.50L62.83,95.33L63.33,94.83L64.50,94.83L65.83,93.50L65.83,93.17L65.33,92.83L64.83,93.00L62.33,93.00L60.83,91.50L60.83,89.33L59.50,88.00Z M65.83,79.17L64.33,79.00L63.67,79.83L62.17,80.17L61.00,81.50L61.33,81.83L62.50,81.83L64.33,79.83L65.33,80.00L65.83,79.67Z M53.00,79.17L53.00,79.67L53.50,80.00L55.50,79.83L56.00,80.33L56.00,83.50L56.33,83.83L61.50,83.83L62.33,84.00L62.67,83.83L63.17,83.00L63.83,82.67L63.67,82.00L63.00,82.00L63.00,82.50L62.67,83.00L57.33,83.00L56.83,82.50L57.83,81.33L55.50,79.00L53.83,79.00L53.50,78.83Z M84.00,78.50L83.67,78.00L83.33,78.00L82.67,78.83L82.00,79.17L82.00,79.67L81.67,80.00L80.33,80.00L79.33,81.00L74.33,81.00L74.00,81.33L74.00,81.67L74.50,82.00L75.17,81.83L79.33,82.00L79.67,81.83L79.83,81.33L80.33,80.83L81.33,81.00L81.67,80.83L81.83,80.33L82.33,79.83L83.50,79.83L83.83,79.50Z M69.00,77.33L69.00,77.67L69.33,77.83L71.50,77.83L72.33,78.83L73.33,78.83L74.33,79.83L78.50,79.83L78.83,79.50L78.50,79.00L74.50,79.00L73.50,78.00L72.17,78.00L71.83,77.67L71.67,77.00L69.33,77.00Z M65.83,77.33L65.50,77.00L63.33,77.00L62.67,77.83L62.00,78.17L61.50,79.00L60.50,78.83L60.17,79.00L60.00,79.50L60.17,79.83L60.67,80.00L60.83,79.83L61.67,79.83L61.83,79.17L62.50,78.83L63.17,78.00L63.50,77.83L65.50,77.83L65.83,77.67Z M37.17,60.00L36.83,60.50L37.00,60.83L37.00,77.50L38.33,78.83L39.67,78.83L40.00,79.17L40.00,79.83L39.83,80.00L37.50,80.00L35.83,78.33L35.83,61.33L35.50,61.00L35.17,61.00L34.83,61.50L35.00,62.17L35.00,79.50L35.33,79.83L36.67,80.00L37.17,80.83L37.50,81.00L39.50,80.83L40.00,81.17L40.17,81.83L40.50,82.00L41.33,81.83L45.33,82.00L45.67,81.83L45.83,81.33L46.33,80.83L47.33,81.00L47.83,80.67L47.83,80.33L47.50,80.00L46.33,80.00L45.33,81.00L40.17,81.00L39.83,80.67L40.00,79.83L44.50,79.83L44.83,79.33L44.50,79.00L40.33,79.00L39.50,78.00L38.33,78.00L37.83,77.50L37.83,60.33L37.67,60.00Z M61.33,59.00L60.00,60.50L60.00,76.33L60.33,76.83L61.50,76.83L62.33,75.83L65.33,75.83L66.33,74.83L68.50,74.83L69.50,75.83L71.33,75.67L71.83,76.00L72.00,76.67L72.33,76.83L74.50,76.83L75.50,77.83L78.33,77.83L78.67,77.67L79.83,76.50L79.83,59.33L79.50,59.00L72.33,59.00L71.50,58.00L69.33,58.00L68.50,57.00L66.33,57.00L65.50,58.00L63.33,58.00L62.50,59.00Z M58.83,59.33L58.50,59.00L57.33,59.00L56.50,58.00L54.33,58.00L53.50,57.00L51.33,57.00L50.50,58.00L47.33,58.00L46.50,59.00L40.33,59.00L39.00,60.50L39.00,76.33L39.17,76.67L40.50,76.83L41.50,77.83L44.33,77.83L45.33,76.83L46.67,76.67L47.33,75.83L50.50,75.83L51.33,74.83L53.50,74.83L54.50,75.83L56.50,75.83L57.17,76.67L58.50,76.83L58.83,76.33Z M36.00,46.17L36.00,46.50L37.33,47.83L38.50,47.83L40.00,49.33L40.00,50.50L39.00,51.33L38.83,53.33L39.17,53.83L39.50,53.83L40.33,52.83L41.50,52.83L42.33,51.83L43.50,51.83L44.33,52.83L45.50,52.83L46.33,53.83L46.67,53.83L47.00,53.33L46.83,52.33L45.83,51.50L45.83,49.33L47.33,47.83L48.50,47.83L49.83,46.50L49.83,46.17L49.33,45.83L48.83,46.00L44.33,46.00L43.83,45.50L43.83,43.33L42.50,42.00L42.17,42.00L41.83,42.50L42.00,44.50L40.50,46.00L37.00,46.00L36.50,45.83Z M76.17,41.00L75.83,41.50L76.00,44.50L74.50,46.00L71.00,46.00L70.50,45.83L70.00,46.17L70.00,46.50L72.33,48.83L73.17,48.83L73.33,48.67L74.00,49.17L74.00,49.50L73.00,50.33L73.00,52.83L72.83,53.33L73.17,53.83L73.50,53.83L74.33,52.83L75.50,52.83L76.33,51.83L77.50,51.83L79.33,53.83L80.33,54.00L80.83,53.67L80.83,53.33L79.83,52.50L79.83,49.33L82.17,47.00L83.67,46.83L83.83,46.17L83.33,45.83L82.50,46.00L78.33,46.00L77.83,45.50L77.83,43.33L76.83,42.33L77.00,41.67L76.83,41.17Z M19.00,13.33L19.00,36.50L19.33,36.83L22.50,36.83L23.33,37.83L24.50,37.83L25.33,38.83L26.50,38.83L27.33,39.83L30.50,39.83L31.33,40.83L33.50,40.83L34.33,39.83L37.50,39.83L38.33,38.83L39.50,38.83L40.33,37.83L41.50,37.83L42.33,36.83L49.50,36.83L50.33,37.83L52.50,37.83L54.33,39.83L57.50,39.83L58.33,40.83L60.50,40.83L61.33,39.83L64.50,39.83L65.33,38.83L66.50,38.83L67.33,37.83L68.50,37.83L69.33,36.83L77.50,36.83L78.33,37.83L79.50,37.83L80.33,38.83L81.50,38.83L82.33,39.83L85.50,39.83L86.33,40.83L87.50,40.83L88.33,39.83L91.50,39.83L92.33,38.83L93.50,38.83L94.33,37.83L96.50,37.83L97.33,36.83L100.50,36.83L100.83,36.50L100.83,13.33L100.50,13.00L19.33,13.00Z M90.50,17.83L91.33,18.83L92.50,18.83L95.00,21.33L95.00,25.50L92.00,28.33L92.00,29.50L91.50,30.00L90.50,30.00L89.50,29.00L88.33,29.00L88.00,29.50L88.17,30.17L88.00,30.67L87.00,31.33L87.17,32.00L87.00,32.67L86.67,33.00L86.17,33.00L85.67,32.33L85.67,31.50L86.00,31.00L86.83,30.50L86.83,28.33L84.50,26.00L83.33,26.00L82.50,25.00L81.33,25.00L80.50,26.00L79.33,26.00L78.17,27.17L77.67,28.00L76.83,27.83L76.83,27.17L77.67,26.67L77.83,26.33L77.83,25.33L78.83,24.50L78.83,22.33L80.33,20.83L83.50,20.83L85.33,18.83L87.50,18.83L88.33,17.83Z M54.33,20.83L57.50,20.83L58.33,19.83L59.50,19.83L60.33,18.83L61.50,18.83L62.33,17.83L64.50,17.83L65.33,18.83L66.50,18.83L69.00,21.33L69.00,25.50L66.00,28.33L66.17,30.33L65.83,30.83L65.17,31.00L65.00,31.33L65.17,32.33L64.67,33.00L64.17,33.00L63.83,32.67L63.67,31.50L64.17,31.00L64.83,30.83L64.83,30.50L63.50,29.00L62.33,29.00L62.17,29.17L62.00,30.67L61.00,31.33L61.17,32.00L61.00,32.67L60.67,33.00L60.17,33.00L59.67,32.33L59.67,31.50L60.00,31.00L60.83,30.50L60.83,27.33L60.50,27.00L59.33,27.00L58.50,26.00L57.33,26.00L56.50,25.00L55.33,25.00L54.50,26.00L53.33,26.00L52.17,27.17L51.67,28.00L50.83,27.83L50.83,27.17L51.67,26.67L51.83,26.33L51.83,25.33L52.83,24.50L52.83,22.33Z M28.33,20.83L31.50,20.83L32.33,19.83L33.50,19.83L34.33,18.83L35.50,18.83L36.33,17.83L38.50,17.83L39.33,18.83L40.50,18.83L43.00,21.33L43.00,25.50L40.00,28.33L40.00,31.50L38.50,33.00L38.17,33.00L37.83,32.67L37.67,31.83L37.83,31.33L38.83,30.33L37.50,29.00L36.33,29.00L36.00,29.50L36.17,30.17L36.00,30.67L35.00,31.33L35.17,32.00L35.00,32.67L34.67,33.00L34.17,33.00L33.83,32.67L33.67,31.50L34.00,31.00L34.83,30.50L34.83,27.33L33.50,26.00L31.33,26.00L30.50,25.00L29.33,25.00L28.50,26.00L27.33,26.00L26.17,27.17L25.67,28.00L24.83,27.83L24.83,27.17L25.67,26.67L25.83,26.33L25.83,25.33L26.83,24.50L26.83,22.33Z M5.33,1.00L1.00,5.33L1.00,6.50L0.50,7.00L0.00,7.00L0.00,112.83L0.50,112.83L1.00,113.33L1.00,114.50L5.33,118.83L6.50,118.83L7.00,119.33L7.00,119.83L112.83,119.83L112.83,119.33L113.33,118.83L114.50,118.83L118.83,114.50L118.83,113.33L119.33,112.83L119.83,112.83L119.83,7.00L119.33,7.00L118.83,6.50L118.83,5.33L114.50,1.00L113.33,1.00L112.83,0.50L112.83,0.00L7.00,0.00L7.00,0.50L6.50,1.00Z M17.33,10.83L101.50,10.83L103.00,12.33L103.00,55.50L102.00,56.33L102.00,61.50L101.00,62.33L101.00,65.50L100.00,66.33L100.00,68.50L99.00,69.33L99.00,71.50L98.00,72.33L98.00,73.50L97.00,74.33L97.00,75.50L96.00,76.33L96.00,77.50L95.00,78.33L95.00,79.50L94.00,80.33L94.00,81.50L92.00,83.33L92.00,84.50L88.00,88.33L88.00,89.50L80.50,97.00L79.33,97.00L76.50,100.00L75.33,100.00L73.50,102.00L72.33,102.00L70.50,104.00L69.33,104.00L68.50,105.00L67.33,105.00L66.50,106.00L65.33,106.00L64.50,107.00L63.33,107.00L62.50,108.00L61.33,108.00L60.50,109.00L58.33,109.00L57.50,108.00L56.33,108.00L55.50,107.00L54.33,107.00L53.50,106.00L52.33,106.00L50.50,104.00L49.33,104.00L48.50,103.00L47.33,103.00L45.50,101.00L44.33,101.00L42.50,99.00L41.33,99.00L29.83,87.50L29.83,86.33L26.83,83.50L26.83,82.33L24.83,80.50L24.83,79.33L23.83,78.50L23.83,77.33L22.83,76.50L22.83,75.33L21.83,74.50L21.83,73.33L20.83,72.50L20.83,70.33L19.83,69.50L19.83,67.33L18.83,66.50L18.83,64.33L17.83,63.50L17.83,59.33L16.83,58.50L16.83,11.33Z"/>
</svg>
