<svg xmlns="http://www.w3.org/2000/svg" viewBox="0 0 24 24" width="24" height="24">
  <defs>
    <linearGradient id="rRing" x1="0" y1="0" x2="0" y2="1">
      <stop offset="0" stop-color="#cbced0"/>
      <stop offset="1" stop-color="#84838b"/>
    </linearGradient>
    <linearGradient id="rBlue" x1="0" y1="0" x2="0" y2="1">
      <stop offset="0" stop-color="#2a6ec1"/>
      <stop offset="1" stop-color="#16538f"/>
    </linearGradient>
  </defs>
  <!-- grey ellipse ring -->
  <path fill="url(#rRing)" fill-rule="evenodd" d="M12 5.4c6.04 0 10.94 3.3 10.94 7.36S18.04 20.12 12 20.12 1.06 16.82 1.06 12.76 5.96 5.4 12 5.4Zm.55 2.32c-4.6 0-8.32 2.3-8.32 5.14s3.72 5.14 8.32 5.14 7.92-1.98 7.92-5.14-3.32-5.14-7.92-5.14Z"/>
  <!-- blue R -->
  <path fill="url(#rBlue)" d="M10.2 9.1h4.06c2.02 0 3.12 1.02 3.12 2.5 0 1.18-.74 1.98-1.86 2.32l2.4 3.86-2.74.96-2.5-4.32h-.02v3.2l-2.46.86V9.1Zm2.46 1.7v2.06h1.18c.86 0 1.32-.36 1.32-1.04 0-.66-.46-1.02-1.32-1.02h-1.18Z"/>
</svg>
